<?xml version="1.0" standalone="no"?>
<!DOCTYPE svg PUBLIC "-//W3C//DTD SVG 20010904//EN"
 "http://www.w3.org/TR/2001/REC-SVG-20010904/DTD/svg10.dtd">
<svg version="1.0" xmlns="http://www.w3.org/2000/svg"
 width="700.000000pt" height="700.000000pt" viewBox="0 0 700.000000 700.000000"
 preserveAspectRatio="xMidYMid meet">
<metadata>
Created by potrace 1.11, written by Peter Selinger 2001-2013
</metadata>
<g transform="translate(0.000000,700.000000) scale(0.100000,-0.100000)"
fill="#000000" stroke="none">
<path d="M3278 6995 c-1 -1 -41 -5 -88 -9 -87 -7 -105 -9 -225 -27 -116 -18
-123 -19 -192 -35 -184 -42 -248 -59 -369 -99 -170 -57 -277 -101 -449 -186
-191 -94 -311 -163 -437 -254 -31 -22 -66 -47 -78 -55 -44 -29 -186 -144 -265
-214 -357 -315 -681 -755 -865 -1176 -23 -52 -46 -104 -51 -115 -59 -129 -157
-456 -193 -650 -32 -165 -37 -202 -53 -375 -15 -163 -8 -592 12 -711 2 -13 6
-46 9 -74 9 -78 23 -156 51 -285 71 -332 241 -752 415 -1033 30 -48 60 -95 65
-105 25 -44 135 -194 212 -289 167 -206 340 -378 553 -548 92 -74 370 -265
386 -265 4 0 15 -6 23 -14 29 -25 304 -161 431 -213 269 -110 577 -194 835
-228 22 -2 56 -7 75 -10 185 -26 693 -27 838 -1 19 4 89 14 142 21 19 3 46 7
60 10 14 3 41 8 60 11 71 12 309 76 430 116 206 67 510 204 652 294 21 13 40
24 42 24 11 0 269 179 356 247 150 117 331 287 445 417 33 38 68 78 78 88 73
77 262 348 355 510 46 79 172 331 172 342 0 3 11 29 24 58 57 127 151 421 182
573 17 81 54 301 59 350 4 33 9 71 11 85 9 46 11 524 4 605 -12 128 -21 202
-25 227 -3 13 -8 43 -11 68 -3 25 -9 61 -14 80 -5 19 -12 51 -15 70 -25 145
-105 405 -188 610 -204 505 -580 1019 -987 1350 -30 25 -57 48 -60 51 -10 11
-167 127 -230 170 -154 104 -401 240 -550 304 -36 15 -83 35 -105 45 -22 9
-69 27 -105 39 -36 13 -72 26 -80 29 -64 23 -283 83 -375 103 -139 29 -136 28
-180 34 -22 3 -51 7 -65 10 -13 2 -52 7 -86 11 -33 3 -74 8 -90 10 -32 5 -540
14 -546 9z m372 -1359 c93 -13 104 -15 196 -41 435 -126 762 -474 866 -920 27
-118 33 -362 12 -485 -80 -452 -400 -819 -846 -969 -49 -17 -88 -28 -88 -26 0
3 -11 0 -24 -5 -71 -27 -363 -33 -481 -11 -69 13 -180 44 -220 60 -38 16 -140
63 -155 72 -98 57 -131 79 -184 122 -139 113 -256 258 -335 414 -43 84 -95
232 -105 297 -4 21 -8 41 -10 45 -7 11 -18 163 -17 238 1 81 4 107 27 243 11
65 71 224 115 308 124 233 296 404 534 531 68 36 233 96 290 105 20 4 41 8 45
11 4 2 42 7 86 11 43 4 80 7 81 8 6 5 164 -2 213 -8z m-695 -3064 c316 -96
585 -111 890 -51 55 11 107 22 115 26 8 3 24 8 35 10 11 2 47 12 80 22 45 14
83 18 155 15 93 -3 170 -10 200 -19 8 -2 31 -6 50 -9 69 -11 91 -17 183 -47
378 -126 667 -365 885 -730 l21 -35 -65 -72 c-89 -98 -190 -193 -315 -297 -13
-11 -62 -48 -109 -82 -334 -241 -708 -399 -1120 -472 -164 -29 -251 -36 -460
-36 -230 0 -317 8 -544 51 -131 24 -369 97 -473 145 -24 10 -45 19 -47 19 -7
0 -205 97 -251 123 -231 129 -438 290 -634 493 l-122 125 22 37 c144 240 291
399 504 544 206 139 451 229 691 253 38 4 70 8 71 9 1 1 40 1 85 1 52 -1 109
-10 153 -23z"/>
</g>
</svg>
